<svg xmlns="http://www.w3.org/2000/svg" viewBox="0 0 32 32">
  <!-- transparent background — just the neural-network brain outline -->
  <!-- synapses -->
  <g stroke="#5b8df9" stroke-width="1" stroke-linecap="round" stroke-linejoin="round" opacity="0.9" fill="none">
    <path d="M11 8 L16 9 L21 8"/>
    <path d="M11 8 L8 12 L10 18 M21 8 L24 12 L22 18"/>
    <path d="M8 12 L12 14 M24 12 L20 14 M11 8 L12 14 M21 8 L20 14"/>
    <path d="M16 9 L16 15 M12 14 L16 15 L20 14"/>
    <path d="M12 14 L10 18 M20 14 L22 18"/>
    <path d="M10 18 L16 20 L22 18 M16 15 L16 20 L16 24"/>
  </g>
  <!-- neurons -->
  <g fill="#5b8df9">
    <circle cx="11" cy="8" r="1.6"/>
    <circle cx="21" cy="8" r="1.6"/>
    <circle cx="16" cy="9" r="1.5"/>
    <circle cx="8" cy="12" r="1.5"/>
    <circle cx="24" cy="12" r="1.5"/>
    <circle cx="10" cy="18" r="1.5"/>
    <circle cx="22" cy="18" r="1.5"/>
    <circle cx="16" cy="24" r="1.3"/>
    <circle cx="12" cy="14" r="1.4"/>
    <circle cx="20" cy="14" r="1.4"/>
    <circle cx="16" cy="20" r="1.3"/>
    <circle cx="16" cy="15" r="2"/>
  </g>
</svg>
